<svg xmlns="http://www.w3.org/2000/svg" viewBox="0 0 640 240" width="640" height="240" role="img" aria-label="Powder-Game: sand and water falling into a heap"><title>Powder-Game: sand and water falling into a heap</title><style>.d{animation:d 1s linear infinite}.w{animation:w 1.65s linear infinite}.f{animation:f 3s ease infinite alternate}@keyframes d{to{transform:translateY(110px)}}@keyframes w{to{transform:translateY(160px)}}@keyframes f{to{opacity:.5}}@media (prefers-reduced-motion:reduce){*{animation:none!important}}</style><rect x="0.5" y="0.5" width="639" height="239" rx="14" fill="#161b22" stroke="#30363d"/><rect class="d" x="220" y="30" width="8" height="8" rx="1.5" fill="#e9c46a" style="animation-delay:-0.0s"/><rect class="d" x="220" y="30" width="8" height="8" rx="1.5" fill="#dcb35c" style="animation-delay:-0.2s"/><rect class="d" x="220" y="30" width="8" height="8" rx="1.5" fill="#f1d38a" style="animation-delay:-0.4s"/><rect class="d" x="220" y="30" width="8" height="8" rx="1.5" fill="#e9c46a" style="animation-delay:-0.6s"/><rect class="d" x="220" y="30" width="8" height="8" rx="1.5" fill="#dcb35c" style="animation-delay:-0.8s"/><rect class="w" x="500" y="30" width="8" height="8" rx="1.5" fill="#58a6ff" style="animation-delay:-0.00s"/><rect class="w" x="500" y="30" width="8" height="8" rx="1.5" fill="#4493f8" style="animation-delay:-0.55s"/><rect class="w" x="500" y="30" width="8" height="8" rx="1.5" fill="#79c0ff" style="animation-delay:-1.10s"/><rect x="80" y="210" width="8" height="8" rx="1.5" fill="#e9c46a"/><rect x="90" y="210" width="8" height="8" rx="1.5" fill="#f1d38a"/><rect x="90" y="200" width="8" height="8" rx="1.5" fill="#f1d38a"/><rect x="100" y="210" width="8" height="8" rx="1.5" fill="#e9c46a"/><rect x="100" y="200" width="8" height="8" rx="1.5" fill="#f1d38a"/><rect x="110" y="210" width="8" height="8" rx="1.5" fill="#dcb35c"/><rect x="110" y="200" width="8" height="8" rx="1.5" fill="#dcb35c"/><rect x="110" y="190" width="8" height="8" rx="1.5" fill="#e9c46a"/><rect x="120" y="210" width="8" height="8" rx="1.5" fill="#dcb35c"/><rect x="120" y="200" width="8" height="8" rx="1.5" fill="#dcb35c"/><rect x="120" y="190" width="8" height="8" rx="1.5" fill="#e9c46a"/><rect x="130" y="210" width="8" height="8" rx="1.5" fill="#dcb35c"/><rect x="130" y="200" width="8" height="8" rx="1.5" fill="#e9c46a"/><rect x="130" y="190" width="8" height="8" rx="1.5" fill="#e9c46a"/><rect x="130" y="180" width="8" height="8" rx="1.5" fill="#e9c46a"/><rect x="140" y="210" width="8" height="8" rx="1.5" fill="#f1d38a"/><rect x="140" y="200" width="8" height="8" rx="1.5" fill="#e9c46a"/><rect x="140" y="190" width="8" height="8" rx="1.5" fill="#e9c46a"/><rect x="140" y="180" width="8" height="8" rx="1.5" fill="#e9c46a"/><rect x="150" y="210" width="8" height="8" rx="1.5" fill="#dcb35c"/><rect x="150" y="200" width="8" height="8" rx="1.5" fill="#dcb35c"/><rect x="150" y="190" width="8" height="8" rx="1.5" fill="#e9c46a"/><rect x="150" y="180" width="8" height="8" rx="1.5" fill="#f1d38a"/><rect x="160" y="210" width="8" height="8" rx="1.5" fill="#f1d38a"/><rect x="160" y="200" width="8" height="8" rx="1.5" fill="#e9c46a"/><rect x="160" y="190" width="8" height="8" rx="1.5" fill="#dcb35c"/><rect x="160" y="180" width="8" height="8" rx="1.5" fill="#f1d38a"/><rect x="160" y="170" width="8" height="8" rx="1.5" fill="#e9c46a"/><rect x="170" y="210" width="8" height="8" rx="1.5" fill="#f1d38a"/><rect x="170" y="200" width="8" height="8" rx="1.5" fill="#e9c46a"/><rect x="170" y="190" width="8" height="8" rx="1.5" fill="#dcb35c"/><rect x="170" y="180" width="8" height="8" rx="1.5" fill="#f1d38a"/><rect x="170" y="170" width="8" height="8" rx="1.5" fill="#dcb35c"/><rect x="170" y="160" width="8" height="8" rx="1.5" fill="#e9c46a"/><rect x="180" y="210" width="8" height="8" rx="1.5" fill="#dcb35c"/><rect x="180" y="200" width="8" height="8" rx="1.5" fill="#dcb35c"/><rect x="180" y="190" width="8" height="8" rx="1.5" fill="#e9c46a"/><rect x="180" y="180" width="8" height="8" rx="1.5" fill="#e9c46a"/><rect x="180" y="170" width="8" height="8" rx="1.5" fill="#dcb35c"/><rect x="180" y="160" width="8" height="8" rx="1.5" fill="#f1d38a"/><rect x="190" y="210" width="8" height="8" rx="1.5" fill="#dcb35c"/><rect x="190" y="200" width="8" height="8" rx="1.5" fill="#e9c46a"/><rect x="190" y="190" width="8" height="8" rx="1.5" fill="#e9c46a"/><rect x="190" y="180" width="8" height="8" rx="1.5" fill="#e9c46a"/><rect x="190" y="170" width="8" height="8" rx="1.5" fill="#dcb35c"/><rect x="190" y="160" width="8" height="8" rx="1.5" fill="#f1d38a"/><rect x="200" y="210" width="8" height="8" rx="1.5" fill="#f1d38a"/><rect x="200" y="200" width="8" height="8" rx="1.5" fill="#f1d38a"/><rect x="200" y="190" width="8" height="8" rx="1.5" fill="#e9c46a"/><rect x="200" y="180" width="8" height="8" rx="1.5" fill="#e9c46a"/><rect x="200" y="170" width="8" height="8" rx="1.5" fill="#e9c46a"/><rect x="200" y="160" width="8" height="8" rx="1.5" fill="#e9c46a"/><rect x="200" y="150" width="8" height="8" rx="1.5" fill="#dcb35c"/><rect x="210" y="210" width="8" height="8" rx="1.5" fill="#dcb35c"/><rect x="210" y="200" width="8" height="8" rx="1.5" fill="#e9c46a"/><rect x="210" y="190" width="8" height="8" rx="1.5" fill="#f1d38a"/><rect x="210" y="180" width="8" height="8" rx="1.5" fill="#dcb35c"/><rect x="210" y="170" width="8" height="8" rx="1.5" fill="#dcb35c"/><rect x="210" y="160" width="8" height="8" rx="1.5" fill="#dcb35c"/><rect x="210" y="150" width="8" height="8" rx="1.5" fill="#e9c46a"/><rect x="210" y="140" width="8" height="8" rx="1.5" fill="#e9c46a"/><rect x="220" y="210" width="8" height="8" rx="1.5" fill="#e9c46a"/><rect x="220" y="200" width="8" height="8" rx="1.5" fill="#e9c46a"/><rect x="220" y="190" width="8" height="8" rx="1.5" fill="#f1d38a"/><rect x="220" y="180" width="8" height="8" rx="1.5" fill="#f1d38a"/><rect x="220" y="170" width="8" height="8" rx="1.5" fill="#e9c46a"/><rect x="220" y="160" width="8" height="8" rx="1.5" fill="#e9c46a"/><rect x="220" y="150" width="8" height="8" rx="1.5" fill="#f1d38a"/><rect x="220" y="140" width="8" height="8" rx="1.5" fill="#dcb35c"/><rect x="230" y="210" width="8" height="8" rx="1.5" fill="#dcb35c"/><rect x="230" y="200" width="8" height="8" rx="1.5" fill="#f1d38a"/><rect x="230" y="190" width="8" height="8" rx="1.5" fill="#dcb35c"/><rect x="230" y="180" width="8" height="8" rx="1.5" fill="#e9c46a"/><rect x="230" y="170" width="8" height="8" rx="1.5" fill="#f1d38a"/><rect x="230" y="160" width="8" height="8" rx="1.5" fill="#dcb35c"/><rect x="230" y="150" width="8" height="8" rx="1.5" fill="#f1d38a"/><rect x="230" y="140" width="8" height="8" rx="1.5" fill="#e9c46a"/><rect x="240" y="210" width="8" height="8" rx="1.5" fill="#dcb35c"/><rect x="240" y="200" width="8" height="8" rx="1.5" fill="#e9c46a"/><rect x="240" y="190" width="8" height="8" rx="1.5" fill="#f1d38a"/><rect x="240" y="180" width="8" height="8" rx="1.5" fill="#e9c46a"/><rect x="240" y="170" width="8" height="8" rx="1.5" fill="#dcb35c"/><rect x="240" y="160" width="8" height="8" rx="1.5" fill="#e9c46a"/><rect x="240" y="150" width="8" height="8" rx="1.5" fill="#f1d38a"/><rect x="250" y="210" width="8" height="8" rx="1.5" fill="#e9c46a"/><rect x="250" y="200" width="8" height="8" rx="1.5" fill="#f1d38a"/><rect x="250" y="190" width="8" height="8" rx="1.5" fill="#e9c46a"/><rect x="250" y="180" width="8" height="8" rx="1.5" fill="#e9c46a"/><rect x="250" y="170" width="8" height="8" rx="1.5" fill="#f1d38a"/><rect x="250" y="160" width="8" height="8" rx="1.5" fill="#f1d38a"/><rect x="260" y="210" width="8" height="8" rx="1.5" fill="#f1d38a"/><rect x="260" y="200" width="8" height="8" rx="1.5" fill="#e9c46a"/><rect x="260" y="190" width="8" height="8" rx="1.5" fill="#f1d38a"/><rect x="260" y="180" width="8" height="8" rx="1.5" fill="#dcb35c"/><rect x="260" y="170" width="8" height="8" rx="1.5" fill="#dcb35c"/><rect x="260" y="160" width="8" height="8" rx="1.5" fill="#f1d38a"/><rect x="270" y="210" width="8" height="8" rx="1.5" fill="#e9c46a"/><rect x="270" y="200" width="8" height="8" rx="1.5" fill="#dcb35c"/><rect x="270" y="190" width="8" height="8" rx="1.5" fill="#e9c46a"/><rect x="270" y="180" width="8" height="8" rx="1.5" fill="#e9c46a"/><rect x="270" y="170" width="8" height="8" rx="1.5" fill="#e9c46a"/><rect x="280" y="210" width="8" height="8" rx="1.5" fill="#e9c46a"/><rect x="280" y="200" width="8" height="8" rx="1.5" fill="#f1d38a"/><rect x="280" y="190" width="8" height="8" rx="1.5" fill="#dcb35c"/><rect x="280" y="180" width="8" height="8" rx="1.5" fill="#e9c46a"/><rect x="280" y="170" width="8" height="8" rx="1.5" fill="#f1d38a"/><rect x="290" y="210" width="8" height="8" rx="1.5" fill="#f1d38a"/><rect x="290" y="200" width="8" height="8" rx="1.5" fill="#dcb35c"/><rect x="290" y="190" width="8" height="8" rx="1.5" fill="#dcb35c"/><rect x="290" y="180" width="8" height="8" rx="1.5" fill="#dcb35c"/><rect x="300" y="210" width="8" height="8" rx="1.5" fill="#f1d38a"/><rect x="300" y="200" width="8" height="8" rx="1.5" fill="#dcb35c"/><rect x="300" y="190" width="8" height="8" rx="1.5" fill="#dcb35c"/><rect x="300" y="180" width="8" height="8" rx="1.5" fill="#f1d38a"/><rect x="310" y="210" width="8" height="8" rx="1.5" fill="#e9c46a"/><rect x="310" y="200" width="8" height="8" rx="1.5" fill="#f1d38a"/><rect x="310" y="190" width="8" height="8" rx="1.5" fill="#e9c46a"/><rect x="320" y="210" width="8" height="8" rx="1.5" fill="#e9c46a"/><rect x="320" y="200" width="8" height="8" rx="1.5" fill="#e9c46a"/><rect x="320" y="190" width="8" height="8" rx="1.5" fill="#dcb35c"/><rect x="330" y="210" width="8" height="8" rx="1.5" fill="#f1d38a"/><rect x="330" y="200" width="8" height="8" rx="1.5" fill="#f1d38a"/><rect x="330" y="190" width="8" height="8" rx="1.5" fill="#f1d38a"/><rect x="340" y="210" width="8" height="8" rx="1.5" fill="#f1d38a"/><rect x="340" y="200" width="8" height="8" rx="1.5" fill="#e9c46a"/><rect x="350" y="210" width="8" height="8" rx="1.5" fill="#f1d38a"/><rect x="350" y="200" width="8" height="8" rx="1.5" fill="#e9c46a"/><rect x="360" y="210" width="8" height="8" rx="1.5" fill="#e9c46a"/><rect x="360" y="200" width="8" height="8" rx="1.5" fill="#58a6ff"/><rect x="370" y="210" width="8" height="8" rx="1.5" fill="#e9c46a"/><rect x="370" y="200" width="8" height="8" rx="1.5" fill="#58a6ff"/><rect x="380" y="210" width="8" height="8" rx="1.5" fill="#4493f8"/><rect x="380" y="200" width="8" height="8" rx="1.5" fill="#79c0ff"/><rect x="390" y="210" width="8" height="8" rx="1.5" fill="#58a6ff"/><rect x="390" y="200" width="8" height="8" rx="1.5" fill="#79c0ff"/><rect x="400" y="210" width="8" height="8" rx="1.5" fill="#4493f8"/><rect x="400" y="200" width="8" height="8" rx="1.5" fill="#79c0ff"/><rect x="410" y="210" width="8" height="8" rx="1.5" fill="#79c0ff"/><rect x="410" y="200" width="8" height="8" rx="1.5" fill="#58a6ff"/><rect x="420" y="210" width="8" height="8" rx="1.5" fill="#58a6ff"/><rect x="420" y="200" width="8" height="8" rx="1.5" fill="#58a6ff"/><rect x="430" y="210" width="8" height="8" rx="1.5" fill="#58a6ff"/><rect x="430" y="200" width="8" height="8" rx="1.5" fill="#79c0ff"/><rect x="440" y="210" width="8" height="8" rx="1.5" fill="#4493f8"/><rect x="440" y="200" width="8" height="8" rx="1.5" fill="#4493f8"/><rect x="450" y="210" width="8" height="8" rx="1.5" fill="#4493f8"/><rect x="450" y="200" width="8" height="8" rx="1.5" fill="#58a6ff"/><rect x="460" y="210" width="8" height="8" rx="1.5" fill="#4493f8"/><rect x="460" y="200" width="8" height="8" rx="1.5" fill="#4493f8"/><rect x="470" y="210" width="8" height="8" rx="1.5" fill="#58a6ff"/><rect x="470" y="200" width="8" height="8" rx="1.5" fill="#79c0ff"/><rect x="480" y="210" width="8" height="8" rx="1.5" fill="#79c0ff"/><rect x="480" y="200" width="8" height="8" rx="1.5" fill="#4493f8"/><rect x="490" y="210" width="8" height="8" rx="1.5" fill="#4493f8"/><rect x="490" y="200" width="8" height="8" rx="1.5" fill="#4493f8"/><rect x="500" y="210" width="8" height="8" rx="1.5" fill="#79c0ff"/><rect x="500" y="200" width="8" height="8" rx="1.5" fill="#58a6ff"/><rect x="510" y="210" width="8" height="8" rx="1.5" fill="#58a6ff"/><rect x="510" y="200" width="8" height="8" rx="1.5" fill="#79c0ff"/><rect x="520" y="210" width="8" height="8" rx="1.5" fill="#4493f8"/><rect x="520" y="200" width="8" height="8" rx="1.5" fill="#4493f8"/><rect x="530" y="210" width="8" height="8" rx="1.5" fill="#79c0ff"/><rect x="530" y="200" width="8" height="8" rx="1.5" fill="#58a6ff"/><rect x="540" y="210" width="8" height="8" rx="1.5" fill="#79c0ff"/><rect x="540" y="200" width="8" height="8" rx="1.5" fill="#4493f8"/><rect x="550" y="210" width="8" height="8" rx="1.5" fill="#79c0ff"/><rect x="550" y="200" width="8" height="8" rx="1.5" fill="#4493f8"/><rect x="560" y="210" width="8" height="8" rx="1.5" fill="#58a6ff"/><rect x="560" y="200" width="8" height="8" rx="1.5" fill="#58a6ff"/><rect x="570" y="210" width="8" height="8" rx="1.5" fill="#58a6ff"/><rect x="570" y="200" width="8" height="8" rx="1.5" fill="#58a6ff"/><rect x="580" y="210" width="8" height="8" rx="1.5" fill="#58a6ff"/><rect x="580" y="200" width="8" height="8" rx="1.5" fill="#79c0ff"/><rect x="590" y="210" width="8" height="8" rx="1.5" fill="#58a6ff"/><rect x="590" y="200" width="8" height="8" rx="1.5" fill="#58a6ff"/><rect class="f" x="340" y="190" width="8" height="8" rx="1.5" fill="#4493f8" style="animation-delay:-2.7s"/><rect class="f" x="350" y="190" width="8" height="8" rx="1.5" fill="#58a6ff" style="animation-delay:-1.3s"/><rect class="f" x="360" y="190" width="8" height="8" rx="1.5" fill="#58a6ff" style="animation-delay:-1.6s"/><rect class="f" x="370" y="190" width="8" height="8" rx="1.5" fill="#4493f8" style="animation-delay:-1.4s"/><rect x="380" y="190" width="8" height="8" rx="1.5" fill="#79c0ff" style="animation-delay:-1.8s"/><rect x="390" y="190" width="8" height="8" rx="1.5" fill="#58a6ff" style="animation-delay:-1.4s"/><rect x="400" y="190" width="8" height="8" rx="1.5" fill="#4493f8" style="animation-delay:-0.1s"/><rect class="f" x="410" y="190" width="8" height="8" rx="1.5" fill="#4493f8" style="animation-delay:-0.9s"/><rect x="420" y="190" width="8" height="8" rx="1.5" fill="#58a6ff" style="animation-delay:-1.1s"/><rect x="430" y="190" width="8" height="8" rx="1.5" fill="#79c0ff" style="animation-delay:-2.4s"/><rect x="440" y="190" width="8" height="8" rx="1.5" fill="#58a6ff" style="animation-delay:-2.7s"/><rect x="450" y="190" width="8" height="8" rx="1.5" fill="#4493f8" style="animation-delay:-1.9s"/><rect class="f" x="460" y="190" width="8" height="8" rx="1.5" fill="#79c0ff" style="animation-delay:-0.2s"/><rect x="470" y="190" width="8" height="8" rx="1.5" fill="#58a6ff" style="animation-delay:-2.6s"/><rect x="480" y="190" width="8" height="8" rx="1.5" fill="#4493f8" style="animation-delay:-2.1s"/><rect x="490" y="190" width="8" height="8" rx="1.5" fill="#4493f8" style="animation-delay:-0.3s"/><rect x="500" y="190" width="8" height="8" rx="1.5" fill="#4493f8" style="animation-delay:-1.4s"/><rect x="510" y="190" width="8" height="8" rx="1.5" fill="#58a6ff" style="animation-delay:-1.8s"/><rect class="f" x="520" y="190" width="8" height="8" rx="1.5" fill="#58a6ff" style="animation-delay:-0.4s"/><rect class="f" x="530" y="190" width="8" height="8" rx="1.5" fill="#79c0ff" style="animation-delay:-2.7s"/><rect x="540" y="190" width="8" height="8" rx="1.5" fill="#4493f8" style="animation-delay:-1.0s"/><rect x="550" y="190" width="8" height="8" rx="1.5" fill="#58a6ff" style="animation-delay:-2.4s"/><rect class="f" x="560" y="190" width="8" height="8" rx="1.5" fill="#4493f8" style="animation-delay:-2.8s"/><rect x="570" y="190" width="8" height="8" rx="1.5" fill="#58a6ff" style="animation-delay:-2.5s"/><rect x="580" y="190" width="8" height="8" rx="1.5" fill="#58a6ff" style="animation-delay:-0.8s"/><rect x="590" y="190" width="8" height="8" rx="1.5" fill="#4493f8" style="animation-delay:-2.8s"/><rect x="210" y="20" width="28" height="8" rx="1.5" fill="#6e7681"/><rect x="490" y="20" width="28" height="8" rx="1.5" fill="#6e7681"/></svg>
